<svg width="105" height="207" viewBox="0 0 105 207" fill="none" xmlns="http://www.w3.org/2000/svg">
<g id="Planet">
<circle id="Mercury " cx="1.77192" cy="103.414" r="102.623" fill="#E0B15F"/>
<path id="Ellipse 74" d="M1.77105 0.790146C15.2478 0.790146 28.5925 3.44458 41.0434 8.60189C53.4942 13.7592 64.8073 21.3184 74.3368 30.8479C83.8663 40.3773 91.4255 51.6905 96.5828 64.1413C101.74 76.5922 104.395 89.9369 104.395 103.414C104.395 116.89 101.74 130.235 96.5828 142.686C91.4255 155.137 83.8663 166.45 74.3368 175.979C64.8073 185.509 53.4942 193.068 41.0433 198.225C28.5925 203.383 15.2477 206.037 1.77104 206.037L1.77105 103.414L1.77105 0.790146Z" fill="#D8A13F"/>
<path id="Vector 15" d="M17.2356 161.599C20.357 165.292 29.8051 166.556 34.1389 166.726L10.1512 147.102C11.212 150.395 14.1141 157.906 17.2356 161.599Z" fill="#8D5A2F" stroke="#8D5A2F" stroke-width="0.889507" stroke-linecap="round"/>
<path id="Vector 11" d="M53.6649 106.242C26.8891 118.691 -12.3562 115.478 -29.6067 110.494C-42.2148 108.001 -59.866 108.324 -29.6067 129.552C8.21734 156.088 60.2622 121.929 66.5661 115.038C72.5637 108.483 70.378 98.4719 53.6649 106.242Z" fill="#8D5A2F" stroke="#8D5A2F" stroke-width="0.889507" stroke-linecap="round"/>
<path id="Vector 10" d="M-0.133781 44.0393C-19.8375 44.8602 -35.2212 36.7579 -40.4501 32.6041C-55.0129 25.6648 -76.7495 19.1457 -47.194 48.584C-10.2495 85.3819 61.4403 89.4868 67.4511 82.3032C73.4619 75.1195 66.2783 66.3232 44.4341 69.1087C22.59 71.8942 24.4959 43.013 -0.133781 44.0393Z" fill="#8D5A2F" stroke="#8D5A2F" stroke-width="0.889507" stroke-linecap="round"/>
<path id="Vector 8" d="M16.1379 26.8853C15.6687 11.2866 -3.99587 5.13892 -13.7695 4.01495C26.3416 -5.25049 60.9013 18.6266 73.1672 31.7233C77.561 36.4146 71.1441 44.5072 64.8107 36.4146C58.4774 28.3221 44.8725 34.7043 38.8617 38.9069C31.4825 41.3992 16.607 42.4841 16.1379 26.8853Z" fill="#8D5A2F" stroke="#8D5A2F" stroke-width="0.889507" stroke-linecap="round"/>
<path id="Vector 12" d="M1.27929 173.35C-7.98615 184.258 -22.2264 182.391 -28.1883 180.094C-41.3339 174.817 -81.406 162.062 -58.9753 152.533C-45.5625 146.834 -31.5602 155.025 -26.8689 162.062C-22.1775 169.099 -18.0727 161.036 -9.86269 164.261C-1.33247 167.612 5.97065 167.34 1.27929 173.35Z" fill="#8D5A2F" stroke="#8D5A2F" stroke-width="0.889507" stroke-linecap="round"/>
<path id="Vector 13" d="M84.8208 134.572C91.4061 147.278 84.2847 159.75 79.9009 164.398C70.0372 174.565 48.7943 192.41 42.7316 182.452C35.1532 170.004 55.4221 158.023 63.7118 156.347C72.0014 154.67 81.0449 143.798 72.1884 141.441C63.3318 139.083 81.0348 127.953 84.8208 134.572Z" fill="#8D5A2F" stroke="#8D5A2F" stroke-width="0.889507" stroke-linecap="round"/>
<path id="Ellipse 67" d="M14.9658 85.6787C15.5298 85.6787 15.9872 86.1363 15.9873 86.7002C15.9873 87.2642 15.5299 87.7217 14.9658 87.7217C14.4019 87.7216 13.9443 87.2642 13.9443 86.7002C13.9445 86.1363 14.402 85.6788 14.9658 85.6787Z" fill="#8D5A2F" stroke="#8D5A2F" stroke-width="0.889507"/>
<circle id="Ellipse 73" cx="41.3567" cy="149.156" r="1.02129" fill="#8D5A2F" stroke="#8D5A2F" stroke-width="0.889507"/>
<path id="Ellipse 70" d="M85.335 97.7021C85.8989 97.7021 86.3563 98.1597 86.3564 98.7236C86.3564 99.2877 85.899 99.7451 85.335 99.7451C84.771 99.745 84.3135 99.2876 84.3135 98.7236C84.3136 98.1598 84.7711 97.7023 85.335 97.7021Z" fill="#8D5A2F" stroke="#8D5A2F" stroke-width="0.889507"/>
<path id="Vector 16" d="M30.4653 186.587C17.9159 184.945 8.32792 194.113 5.10261 198.902C-2.66745 209.311 27.5332 195.97 27.24 194.504C26.9468 193.037 37.5023 188.053 30.4653 186.587Z" fill="#8D5A2F"/>
</g>
</svg>
