<svg width="37" height="33" viewBox="0 0 37 33" fill="none" xmlns="http://www.w3.org/2000/svg">
<path d="M11.7816 15.9582H3.41234C3.5551 7.62462 5.19682 6.25057 10.3183 3.21695C10.9072 2.86005 11.1035 2.11057 10.7466 1.50384C10.6644 1.36336 10.555 1.24065 10.4249 1.14288C10.2948 1.0451 10.1465 0.974211 9.98871 0.934346C9.83091 0.89448 9.66675 0.886436 9.50581 0.910682C9.34486 0.934928 9.19036 0.990979 9.05131 1.07557C3.01975 4.64453 0.914062 6.8216 0.914062 17.1895V26.8078C0.914062 29.8593 3.39449 32.3219 6.42812 32.3219H11.7816C14.9223 32.3219 17.2956 29.9485 17.2956 26.8078V21.4544C17.2956 18.3315 14.9223 15.9582 11.7816 15.9582ZM31.0879 15.9582H22.7187C22.8614 7.62462 24.5032 6.25057 29.6246 3.21695C30.2135 2.86005 30.4098 2.11057 30.0529 1.50384C29.9688 1.36293 29.8577 1.24002 29.726 1.14218C29.5943 1.04433 29.4445 0.973471 29.2853 0.933674C29.1262 0.893877 28.9607 0.885926 28.7984 0.910276C28.6361 0.934626 28.4803 0.990799 28.3398 1.07557C22.3082 4.64453 20.2025 6.8216 20.2025 17.2073V26.8257C20.2025 29.8771 22.683 32.3397 25.7166 32.3397H31.07C34.2107 32.3397 36.5841 29.9664 36.5841 26.8257V21.4722C36.6019 18.3315 34.2286 15.9582 31.0879 15.9582Z" fill="#444444"/>
</svg>
