<svg width="183" height="38" viewBox="0 0 183 38" fill="none" xmlns="http://www.w3.org/2000/svg">
<path d="M11.288 28.4649C9.42834 28.4649 7.72048 28.0284 6.16444 27.1555C4.6084 26.2826 3.37495 25.0776 2.46409 23.5406C1.55324 21.9845 1.09781 20.2292 1.09781 18.2747C1.09781 16.3391 1.55324 14.6028 2.46409 13.0657C3.37495 11.5097 4.6084 10.2952 6.16444 9.42231C7.72048 8.54941 9.42834 8.11296 11.288 8.11296C13.1666 8.11296 14.8745 8.54941 16.4116 9.42231C17.9676 10.2952 19.1916 11.5097 20.0834 13.0657C20.9943 14.6028 21.4497 16.3391 21.4497 18.2747C21.4497 20.2292 20.9943 21.9845 20.0834 23.5406C19.1916 25.0776 17.9676 26.2826 16.4116 27.1555C14.8555 28.0284 13.1477 28.4649 11.288 28.4649ZM11.288 24.9068C12.4835 24.9068 13.5367 24.6412 14.4475 24.1098C15.3584 23.5595 16.07 22.7815 16.5823 21.7758C17.0947 20.77 17.3509 19.603 17.3509 18.2747C17.3509 16.9464 17.0947 15.7888 16.5823 14.8021C16.07 13.7963 15.3584 13.0278 14.4475 12.4965C13.5367 11.9651 12.4835 11.6995 11.288 11.6995C10.0925 11.6995 9.02984 11.9651 8.10001 12.4965C7.18915 13.0278 6.47755 13.7963 5.96519 14.8021C5.45283 15.7888 5.19666 16.9464 5.19666 18.2747C5.19666 19.603 5.45283 20.77 5.96519 21.7758C6.47755 22.7815 7.18915 23.5595 8.10001 24.1098C9.02984 24.6412 10.0925 24.9068 11.288 24.9068ZM39.0166 12.4965V28.2656H35.0031V26.2731C34.4908 26.9563 33.8171 27.4971 32.9822 27.8956C32.1662 28.2751 31.2743 28.4649 30.3065 28.4649C29.0731 28.4649 27.982 28.2087 27.0332 27.6963C26.0843 27.165 25.3348 26.3965 24.7845 25.3907C24.2532 24.366 23.9875 23.1516 23.9875 21.7473V12.4965H27.9725V21.178C27.9725 22.4305 28.2856 23.3982 28.9118 24.0814C29.538 24.7456 30.3919 25.0776 31.4736 25.0776C32.5742 25.0776 33.4376 24.7456 34.0638 24.0814C34.69 23.3982 35.0031 22.4305 35.0031 21.178V12.4965H39.0166ZM46.6488 14.9444C47.1611 14.1094 47.8253 13.4547 48.6413 12.9803C49.4762 12.5059 50.425 12.2687 51.4877 12.2687V16.453H50.4345C49.1821 16.453 48.2333 16.7471 47.5881 17.3354C46.9619 17.9236 46.6488 18.9483 46.6488 20.4095V28.2656H42.6638V12.4965H46.6488V14.9444ZM59.4172 18.3031C59.4172 16.3486 59.8537 14.6028 60.7266 13.0657C61.6184 11.5097 62.8234 10.3047 64.3415 9.45078C65.8786 8.57788 67.5959 8.14143 69.4935 8.14143C71.7137 8.14143 73.6588 8.71071 75.3287 9.84928C76.9986 10.9878 78.1656 12.5629 78.8298 14.5743H74.2471C73.7916 13.6255 73.1464 12.9139 72.3115 12.4395C71.4955 11.9651 70.5467 11.7279 69.4651 11.7279C68.3075 11.7279 67.2733 12.0031 66.3625 12.5534C65.4706 13.0847 64.7685 13.8438 64.2561 14.8305C63.7627 15.8173 63.516 16.9748 63.516 18.3031C63.516 19.6125 63.7627 20.77 64.2561 21.7758C64.7685 22.7625 65.4706 23.5311 66.3625 24.0814C67.2733 24.6127 68.3075 24.8784 69.4651 24.8784C70.5467 24.8784 71.4955 24.6412 72.3115 24.1668C73.1464 23.6734 73.7916 22.9523 74.2471 22.0035H78.8298C78.1656 24.0339 76.9986 25.6185 75.3287 26.757C73.6778 27.8766 71.7327 28.4364 69.4935 28.4364C67.5959 28.4364 65.8786 28.0094 64.3415 27.1555C62.8234 26.2826 61.6184 25.0776 60.7266 23.5406C59.8537 22.0035 59.4172 20.2577 59.4172 18.3031ZM85.9338 7.20211V28.2656H81.9488V7.20211H85.9338ZM91.6073 10.6178C90.9052 10.6178 90.317 10.3996 89.8426 9.96314C89.3871 9.50771 89.1594 8.94791 89.1594 8.28375C89.1594 7.61958 89.3871 7.06927 89.8426 6.63282C90.317 6.17739 90.9052 5.94968 91.6073 5.94968C92.3095 5.94968 92.8882 6.17739 93.3437 6.63282C93.8181 7.06927 94.0553 7.61958 94.0553 8.28375C94.0553 8.94791 93.8181 9.50771 93.3437 9.96314C92.8882 10.3996 92.3095 10.6178 91.6073 10.6178ZM93.5714 12.4965V28.2656H89.5864V12.4965H93.5714ZM111.883 20.0395C111.883 20.6088 111.845 21.1211 111.769 21.5765H100.241C100.336 22.7151 100.734 23.607 101.437 24.2522C102.139 24.8974 103.002 25.22 104.027 25.22C105.507 25.22 106.56 24.5843 107.186 23.3129H111.484C111.029 24.8309 110.156 26.0834 108.866 27.0701C107.575 28.0379 105.991 28.5218 104.112 28.5218C102.594 28.5218 101.228 28.1897 100.013 27.5256C98.8179 26.8424 97.8786 25.8841 97.1954 24.6507C96.5313 23.4172 96.1992 21.994 96.1992 20.381C96.1992 18.7491 96.5313 17.3164 97.1954 16.0829C97.8596 14.8495 98.7894 13.9007 99.9849 13.2365C101.18 12.5724 102.556 12.2403 104.112 12.2403C105.611 12.2403 106.949 12.5629 108.126 13.2081C109.321 13.8532 110.242 14.7736 110.887 15.9691C111.551 17.1456 111.883 18.5024 111.883 20.0395ZM107.756 18.9009C107.737 17.8762 107.367 17.0602 106.646 16.453C105.924 15.8268 105.042 15.5137 103.998 15.5137C103.012 15.5137 102.177 15.8173 101.494 16.4245C100.829 17.0128 100.421 17.8382 100.27 18.9009H107.756ZM123.246 12.2687C125.124 12.2687 126.642 12.8665 127.8 14.062C128.957 15.2385 129.536 16.8894 129.536 19.0148V28.2656H125.551V19.5556C125.551 18.3032 125.238 17.3449 124.612 16.6807C123.986 15.9975 123.132 15.656 122.05 15.656C120.949 15.656 120.077 15.9975 119.431 16.6807C118.805 17.3449 118.492 18.3032 118.492 19.5556V28.2656H114.507V12.4965H118.492V14.4605C119.023 13.7773 119.697 13.246 120.513 12.8665C121.348 12.468 122.259 12.2687 123.246 12.2687ZM137.681 15.7698V23.3982C137.681 23.9296 137.804 24.3186 138.051 24.5653C138.316 24.793 138.753 24.9068 139.36 24.9068H141.21V28.2656H138.705C135.347 28.2656 133.667 26.6337 133.667 23.3698V15.7698H131.789V12.4965H133.667V8.59685H137.681V12.4965H141.21V15.7698H137.681ZM149.826 28.5218C148.536 28.5218 147.378 28.2941 146.354 27.8387C145.329 27.3643 144.513 26.7286 143.906 25.9316C143.317 25.1346 142.995 24.2522 142.938 23.2844H146.951C147.027 23.8916 147.321 24.3945 147.834 24.793C148.365 25.1915 149.02 25.3907 149.798 25.3907C150.557 25.3907 151.145 25.2389 151.563 24.9353C151.999 24.6317 152.217 24.2427 152.217 23.7683C152.217 23.2559 151.952 22.8764 151.42 22.6297C150.908 22.364 150.082 22.0794 148.944 21.7758C147.767 21.4911 146.8 21.197 146.04 20.8934C145.3 20.5898 144.655 20.1249 144.105 19.4986C143.574 18.8724 143.308 18.028 143.308 16.9653C143.308 16.0924 143.555 15.2954 144.048 14.5743C144.56 13.8532 145.281 13.284 146.211 12.8665C147.16 12.449 148.27 12.2403 149.542 12.2403C151.42 12.2403 152.919 12.7147 154.039 13.6635C155.159 14.5933 155.775 15.8552 155.889 17.4492H152.075C152.018 16.823 151.752 16.3296 151.278 15.9691C150.822 15.5896 150.206 15.3998 149.428 15.3998C148.707 15.3998 148.147 15.5326 147.748 15.7983C147.369 16.064 147.179 16.434 147.179 16.9084C147.179 17.4397 147.445 17.8477 147.976 18.1324C148.507 18.398 149.333 18.6732 150.452 18.9578C151.591 19.2425 152.53 19.5366 153.27 19.8402C154.01 20.1438 154.646 20.6182 155.177 21.2634C155.728 21.8896 156.012 22.7246 156.031 23.7683C156.031 24.6791 155.775 25.4951 155.263 26.2162C154.77 26.9373 154.048 27.5066 153.1 27.9241C152.17 28.3226 151.079 28.5218 149.826 28.5218Z" fill="#F8F9FF"/>
<path d="M181.616 18.7641C181.618 19.0491 181.532 19.3278 181.368 19.5613C181.205 19.7948 180.973 19.9716 180.704 20.0671L175.193 22.0711L173.19 27.581C173.091 27.847 172.914 28.0764 172.681 28.2384C172.448 28.4004 172.171 28.4872 171.887 28.4872C171.603 28.4872 171.327 28.4004 171.094 28.2384C170.861 28.0764 170.683 27.847 170.584 27.581L168.58 22.065L163.07 20.0671C162.804 19.9684 162.575 19.7906 162.413 19.5577C162.251 19.3247 162.164 19.0478 162.164 18.7641C162.164 18.4804 162.251 18.2035 162.413 17.9705C162.575 17.7376 162.804 17.5598 163.07 17.4611L168.586 15.4571L170.584 9.94722C170.683 9.68123 170.861 9.45184 171.094 9.28984C171.327 9.12785 171.603 9.04102 171.887 9.04102C172.171 9.04102 172.448 9.12785 172.681 9.28984C172.914 9.45184 173.091 9.68123 173.19 9.94722L175.194 15.4632L180.704 17.4611C180.973 17.5566 181.205 17.7334 181.368 17.9669C181.532 18.2004 181.618 18.4791 181.616 18.7641Z" fill="#FBEBD7"/>
</svg>
