<svg width="1124" height="510" viewBox="0 0 1124 510" fill="none" xmlns="http://www.w3.org/2000/svg">
<rect y="8.61133" width="1071.6" height="500.43" rx="39.3008" fill="#0D0D0D" fill-opacity="0.2"/>
<path d="M211.826 269.146V222.3H219.246V242.925H240.94V222.3H248.297V269.146H240.94V249.528H219.246V269.146H211.826ZM297.746 269.901C294.35 269.901 291.185 269.293 288.25 268.078C285.358 266.862 282.801 265.164 280.579 262.984C278.399 260.804 276.68 258.247 275.423 255.313C274.207 252.378 273.599 249.171 273.599 245.692C273.599 242.212 274.207 239.005 275.423 236.071C276.68 233.095 278.399 230.537 280.579 228.399C282.759 226.22 285.316 224.543 288.25 223.369C291.185 222.153 294.35 221.545 297.746 221.545C301.183 221.545 304.348 222.153 307.241 223.369C310.175 224.543 312.732 226.22 314.912 228.399C317.134 230.579 318.853 233.137 320.068 236.071C321.284 239.005 321.892 242.212 321.892 245.692C321.892 249.171 321.263 252.378 320.006 255.313C318.79 258.247 317.092 260.804 314.912 262.984C312.732 265.164 310.175 266.862 307.241 268.078C304.306 269.293 301.141 269.901 297.746 269.901ZM297.746 263.11C300.177 263.11 302.399 262.67 304.411 261.789C306.465 260.909 308.247 259.693 309.756 258.142C311.265 256.549 312.439 254.705 313.277 252.609C314.116 250.471 314.535 248.165 314.535 245.692C314.535 243.218 314.116 240.934 313.277 238.838C312.439 236.742 311.265 234.897 309.756 233.304C308.247 231.711 306.465 230.475 304.411 229.594C302.399 228.714 300.177 228.274 297.746 228.274C295.314 228.274 293.071 228.714 291.017 229.594C289.005 230.475 287.244 231.711 285.735 233.304C284.226 234.897 283.052 236.742 282.214 238.838C281.417 240.934 281.019 243.218 281.019 245.692C281.019 248.165 281.417 250.471 282.214 252.609C283.052 254.705 284.226 256.549 285.735 258.142C287.244 259.693 289.026 260.909 291.08 261.789C293.134 262.67 295.356 263.11 297.746 263.11ZM354.678 269.146L341.787 222.3H349.648L360.086 262.858H358.137L368.952 222.3H376.687L387.502 262.858H385.49L395.991 222.3H403.788L390.961 269.146H382.597L371.719 229.217H373.92L362.978 269.146H354.678ZM462.998 269.146L450.108 222.3H457.968L468.406 262.858H466.457L477.272 222.3H485.007L495.822 262.858H493.81L504.311 222.3H512.109L499.281 269.146H490.918L480.039 229.217H482.24L471.299 269.146H462.998ZM534.608 269.146V222.3H565.483V228.903H542.028V242.359H564.225V248.962H542.028V262.544H565.483V269.146H534.608ZM626.062 269.146L613.171 222.3H621.032L631.47 262.858H629.521L640.336 222.3H648.071L658.886 262.858H656.874L667.375 222.3H675.172L662.345 269.146H653.981L643.103 229.217H645.304L634.362 269.146H626.062ZM719.207 269.901C715.811 269.901 712.646 269.293 709.712 268.078C706.819 266.862 704.262 265.164 702.04 262.984C699.86 260.804 698.142 258.247 696.884 255.313C695.668 252.378 695.061 249.171 695.061 245.692C695.061 242.212 695.668 239.005 696.884 236.071C698.142 233.095 699.86 230.537 702.04 228.399C704.22 226.22 706.777 224.543 709.712 223.369C712.646 222.153 715.811 221.545 719.207 221.545C722.644 221.545 725.809 222.153 728.702 223.369C731.636 224.543 734.194 226.22 736.373 228.399C738.595 230.579 740.314 233.137 741.53 236.071C742.745 239.005 743.353 242.212 743.353 245.692C743.353 249.171 742.724 252.378 741.467 255.313C740.251 258.247 738.553 260.804 736.373 262.984C734.194 265.164 731.636 266.862 728.702 268.078C725.768 269.293 722.602 269.901 719.207 269.901ZM719.207 263.11C721.638 263.11 723.86 262.67 725.872 261.789C727.926 260.909 729.708 259.693 731.217 258.142C732.726 256.549 733.9 254.705 734.739 252.609C735.577 250.471 735.996 248.165 735.996 245.692C735.996 243.218 735.577 240.934 734.739 238.838C733.9 236.742 732.726 234.897 731.217 233.304C729.708 231.711 727.926 230.475 725.872 229.594C723.86 228.714 721.638 228.274 719.207 228.274C716.775 228.274 714.533 228.714 712.479 229.594C710.466 230.475 708.706 231.711 707.197 233.304C705.687 234.897 704.514 236.742 703.675 238.838C702.879 240.934 702.481 243.218 702.481 245.692C702.481 248.165 702.879 250.471 703.675 252.609C704.514 254.705 705.687 256.549 707.197 258.142C708.706 259.693 710.487 260.909 712.541 261.789C714.596 262.67 716.817 263.11 719.207 263.11ZM768.627 269.146V222.3H785.668C788.812 222.3 791.579 222.887 793.968 224.061C796.358 225.193 798.223 226.869 799.565 229.091C800.948 231.271 801.64 233.891 801.64 236.951C801.64 240.179 800.822 242.946 799.187 245.252C797.594 247.557 795.435 249.234 792.711 250.282L803.526 269.146H795.1L783.593 248.71L788.435 251.54H776.047V269.146H768.627ZM776.047 244.937H785.794C787.512 244.937 789.001 244.602 790.258 243.931C791.516 243.26 792.48 242.338 793.151 241.164C793.863 239.949 794.22 238.523 794.22 236.888C794.22 235.254 793.863 233.849 793.151 232.675C792.48 231.46 791.516 230.537 790.258 229.909C789.001 229.238 787.512 228.903 785.794 228.903H776.047V244.937ZM826.748 269.146V222.3H834.168V247.704L832.219 246.949L853.41 222.3H862.653L843.915 244.246L844.292 238.963L863.408 269.146H854.667L840.959 247.704L834.168 255.627V269.146H826.748Z" fill="#0D0D0D"/>
<rect x="918.327" y="7.86015" width="197.814" height="197.814" rx="98.9069" fill="#B3EF76" stroke="white" stroke-width="15.7203"/>
<path d="M1040.49 101.065C1041.64 101.678 1042.6 102.594 1043.28 103.714C1043.95 104.834 1044.3 106.116 1044.3 107.422C1044.3 108.729 1043.95 110.011 1043.28 111.13C1042.6 112.25 1041.64 113.166 1040.49 113.78L1009.71 130.512C1004.76 133.207 998.674 129.7 998.674 124.157V90.6894C998.674 85.1415 1004.76 81.6374 1009.71 84.3297L1040.49 101.065Z" fill="#0D0D0D"/>
</svg>
