<svg xmlns="http://www.w3.org/2000/svg" width="300" height="300" viewBox="0 0 100 100">
  <g fill="none" stroke="#ffffff" stroke-width="0.5">
    <!-- Horizontal lines -->
    <path d="M0,20 h100 M0,40 h100 M0,60 h100 M0,80 h100" />
    
    <!-- Vertical lines -->
    <path d="M20,0 v100 M40,0 v100 M60,0 v100 M80,0 v100" />
    
    <!-- Circuit elements -->
    <circle cx="20" cy="20" r="2" />
    <circle cx="60" cy="20" r="2" />
    <circle cx="40" cy="40" r="2" />
    <circle cx="80" cy="40" r="2" />
    <circle cx="20" cy="60" r="2" />
    <circle cx="60" cy="60" r="2" />
    <circle cx="40" cy="80" r="2" />
    <circle cx="80" cy="80" r="2" />
    
    <!-- Connections -->
    <path d="M20,20 h18 M42,40 h16 M62,20 v18 M22,60 v18 M62,60 h16 M82,40 v18" />
    
    <!-- Small components -->
    <rect x="38" y="38" width="4" height="4" />
    <rect x="78" y="38" width="4" height="4" />
    <rect x="18" y="58" width="4" height="4" />
    <rect x="58" y="58" width="4" height="4" />
    
    <!-- Curved paths -->
    <path d="M20,22 q10,10 20,18" />
    <path d="M60,22 q10,10 20,18" />
    <path d="M22,60 q10,10 16,18" />
    <path d="M62,62 q10,10 16,16" />
    
    <!-- Integrated circuits -->
    <rect x="10" y="10" width="8" height="8" rx="1" />
    <rect x="50" y="10" width="8" height="8" rx="1" />
    <rect x="30" y="30" width="8" height="8" rx="1" />
    <rect x="70" y="30" width="8" height="8" rx="1" />
    <rect x="10" y="50" width="8" height="8" rx="1" />
    <rect x="50" y="50" width="8" height="8" rx="1" />
    <rect x="30" y="70" width="8" height="8" rx="1" />
    <rect x="70" y="70" width="8" height="8" rx="1" />
  </g>
</svg> 