<svg xmlns="http://www.w3.org/2000/svg" width="500" height="500" version="1.0" viewBox="0 0 375 375"><defs><clipPath id="a"><path d="M8.598 161.16h159v84.75h-159Zm0 0"/></clipPath></defs><path fill="#003c95" d="M106.145 140.958a16.865 16.865 0 0 0-5.937-4.61c-2.325-1.1-4.688-1.656-7.094-1.656-5.012 0-9.168 1.993-12.469 5.97-3.293 3.968-4.937 8.777-4.937 14.421 0 5.543 1.671 10.25 5.015 14.125 3.352 3.867 7.457 5.797 12.313 5.797 2.507 0 4.914-.586 7.218-1.766 2.301-1.175 4.266-2.68 5.891-4.515v13.734a45.446 45.446 0 0 1-6.562 2.531c-2.168.657-4.454.985-6.86.985-5.23 0-10.027-1.336-14.39-4-4.368-2.664-7.883-6.399-10.547-11.203-2.668-4.813-4-9.961-4-15.454 0-5.75 1.28-11.066 3.843-15.953 2.563-4.894 6.079-8.726 10.547-11.5 4.47-2.77 9.395-4.156 14.782-4.156 2.351 0 4.64.305 6.859.906a28.799 28.799 0 0 1 6.328 2.547Zm23.515-15.672c6.219 0 11.016 1.531 14.39 4.594 3.376 3.055 5.063 7.453 5.063 13.203 0 4.188-1.14 7.84-3.422 10.953-2.273 3.106-5.156 4.918-8.656 5.438l16.703 24.937H139.77l-14.344-23.844h-.156v23.844h-11.532v-59.125Zm-4.39 27.203h1.25c3.976 0 6.816-.726 8.515-2.187 1.695-1.469 2.547-3.77 2.547-6.906 0-3.082-.84-5.301-2.516-6.657-1.668-1.363-4.464-2.047-8.39-2.047h-1.406Zm62.8-27.203v10.031h-19.048v13.016h18.344v10.047h-18.344v16h19.047v10.031h-30.578v-59.125Zm4.857 29.484c0-5.956 1.238-11.289 3.719-16 2.488-4.706 5.969-8.394 10.437-11.062 4.47-2.664 9.5-4 15.094-4 5.695 0 10.797 1.375 15.297 4.125 4.5 2.742 7.953 6.48 10.36 11.219 2.406 4.73 3.609 9.969 3.609 15.719 0 6.011-1.246 11.398-3.735 16.156-2.48 4.75-5.933 8.449-10.359 11.094-4.418 2.632-9.477 3.953-15.172 3.953-5.594 0-10.601-1.293-15.016-3.875-4.418-2.594-7.898-6.29-10.437-11.094-2.531-4.813-3.797-10.223-3.797-16.234Zm29.172-19.687c-4.906 0-9.012 1.887-12.313 5.656-3.293 3.762-4.937 8.282-4.937 13.563 0 5.906 1.55 10.773 4.656 14.594 3.113 3.812 7.336 5.718 12.672 5.718 5.332 0 9.555-1.906 12.672-5.718 3.113-3.82 4.672-8.688 4.672-14.594 0-5.332-1.653-9.867-4.953-13.61-3.293-3.738-7.45-5.609-12.469-5.609Zm42.035-9.797 14.188 39.828h.156l13.172-39.828h12.39l-22.968 60.688h-6.75l-22.578-60.688Zm70.104-1.578 22.422 60.703h-12.312l-4.547-12.469h-20.547l-4.86 12.47h-12.156l23.047-60.704Zm-11.687 38.828h14.031l-7.375-21.5h-.156Zm0 0"/><g clip-path="url(#a)"><path fill="#ffbf00" d="m36.95 229.852 6.167-18.844-16.07-11.63 19.836.048 6.082-18.875 6.09 18.875 108.824-6.035-104.492.074-10.422-32.305-10.414 32.305-33.946-.074 27.508 19.894-10.562 32.254 27.414-20.008 85.957-9.445-85.957 2.074Zm0 0"/></g></svg>